<?xml version="1.0" encoding="UTF-8" standalone="no"?>
<!-- Created with Inkscape (http://www.inkscape.org/) -->

<svg
   width="100.96623mm"
   height="44.00351mm"
   viewBox="0 0 100.96623 44.00351"
   version="1.1"
   id="svg1"
   xmlns="http://www.w3.org/2000/svg"
   xmlns:svg="http://www.w3.org/2000/svg">
  <defs
     id="defs1" />
  <g
     id="layer1"
     transform="translate(-37.082279,-82.1944)">
    <path
       style="font-size:50.8px;font-family:'Grand Hotel';-inkscape-font-specification:'Grand Hotel';fill:#666666;stroke-width:0.264583"
       d="m 46.334432,91.148914 q 0,-0.719336 -0.124024,-1.041797 -0.09922,-0.322461 -0.09922,-0.595312 0,-0.372071 0.396875,-0.620117 0.396875,-0.248047 0.942578,-0.248047 1.265039,0 2.033984,0.669726 0.79375,0.644922 0.79375,1.5875 V 107.4952 q 0.967383,-0.17363 2.108399,-0.59531 1.16582,-0.42168 2.306835,-1.11621 1.165821,-0.71934 2.232422,-1.73633 1.091407,-1.01699 1.909961,-2.38125 0.84336,-1.36426 1.339453,-3.07578 0.520899,-1.736328 0.520899,-3.894336 0,-1.438672 -0.496094,-2.976562 -0.471289,-1.537891 -1.488281,-2.80293 -1.016992,-1.265039 -2.629297,-2.083594 -1.5875,-0.818554 -3.819922,-0.818554 -2.926953,0 -5.060156,0.967383 -2.133203,0.967382 -3.522266,2.604492 -1.389062,1.612304 -2.058789,3.695898 -0.669726,2.083594 -0.669726,4.316016 0,1.686718 0.272851,2.852537 0.297657,1.14102 0.644922,1.88516 0.347266,0.71933 0.644922,1.0666 0.297656,0.34727 0.347266,0.39687 0.421679,-0.12402 0.595312,0.0992 0.173633,0.22325 0.173633,0.59532 0,0.34726 -0.248047,1.04179 -0.223242,0.69454 -0.620117,1.31465 -0.396875,0.59531 -0.917773,0.91778 -0.520899,0.29765 -1.066602,-0.12403 -0.297656,-0.27285 -0.917773,-0.99218 -0.620118,-0.71934 -1.240235,-1.90997 -0.595312,-1.21543 -1.066601,-2.90214 -0.471289,-1.71153 -0.471289,-3.94395 0,-3.522266 1.091406,-6.399609 1.091406,-2.902149 3.075781,-4.960938 2.00918,-2.083593 4.787305,-3.199804 2.778125,-1.141016 6.176367,-1.141016 2.778125,0 5.060156,0.917773 2.282031,0.917774 3.91914,2.579688 1.63711,1.637109 2.530079,3.91914 0.892968,2.282032 0.892968,4.985743 0,2.604492 -0.768945,4.886523 -0.744141,2.28203 -2.058789,4.16719 -1.314648,1.88515 -3.075781,3.34863 -1.736328,1.46348 -3.745508,2.38125 1.265039,0.71934 2.083594,1.76113 0.843359,1.017 1.413867,2.20762 0.595312,1.16582 1.016992,2.45566 0.446484,1.28984 0.892969,2.53008 0.446484,1.26504 1.016992,2.43086 0.570508,1.16582 1.438672,2.08359 0.09922,0.12403 0.248047,0.17364 0.173633,0.0744 0.322461,0.12402 0.173632,0.0744 0.272851,0.14883 0.124024,0.0992 0.124024,0.24804 0,0.37207 -0.42168,0.81856 -0.42168,0.47129 -0.992188,0.86816 -0.570507,0.42168 -1.16582,0.69453 -0.570508,0.27285 -0.868164,0.27285 -0.37207,0 -0.669726,-0.29765 -1.240235,-1.41387 -1.934766,-2.95176 -0.694531,-1.51308 -1.16582,-3.02617 -0.471289,-1.48828 -0.868164,-2.90215 -0.396875,-1.41386 -1.041797,-2.60449 -0.620117,-1.19062 -1.63711,-2.08359 -1.016992,-0.89297 -2.75332,-1.36426 v 7.04453 q 0,0.64492 -0.42168,0.89297 -0.421679,0.27285 -0.992187,0.27285 -0.446484,0 -0.892969,-0.12402 -0.446484,-0.12403 -0.818554,-0.32247 -0.347266,-0.19843 -0.595313,-0.47128 -0.223242,-0.24805 -0.223242,-0.54571 z m 29.294336,9.698636 q 0,-0.71934 -0.09922,-1.0418 -0.09922,-0.322461 -0.09922,-0.595313 0,-0.37207 0.37207,-0.595312 0.396875,-0.248047 0.942578,-0.248047 1.265039,0 2.00918,0.669727 0.74414,0.644921 0.74414,1.562695 v 11.6334 q 0.02481,0.79375 0.124024,1.46348 0.124023,0.66972 0.396875,1.14101 0.272851,0.47129 0.74414,0.74414 0.47129,0.24805 1.21543,0.24805 0.719336,0 1.190625,-0.27285 0.496094,-0.29766 0.79375,-0.79375 0.297656,-0.4961 0.42168,-1.14102 0.124023,-0.66973 0.124023,-1.38906 v -11.38535 q 0,-0.71934 -0.09922,-1.0418 -0.09922,-0.322461 -0.09922,-0.595313 0,-0.37207 0.396875,-0.595312 0.396875,-0.248047 0.942578,-0.248047 1.265039,0 1.984375,0.669727 0.74414,0.644921 0.74414,1.562695 v 11.6334 q 0,1.19062 -0.248046,2.43086 -0.223243,1.21543 -0.892969,2.23242 -0.669727,0.99218 -1.885156,1.63711 -1.21543,0.64492 -3.175,0.64492 -0.818555,0 -1.537891,-0.19844 -0.719336,-0.19844 -1.314648,-0.5457 -0.595313,-0.32246 -1.041797,-0.74414 -0.446485,-0.44649 -0.719336,-0.94258 -0.248047,0.49609 -0.744141,0.94258 -0.471289,0.42168 -1.091406,0.74414 -0.620117,0.34726 -1.339453,0.5457 -0.719336,0.19844 -1.438672,0.19844 -1.413867,0 -2.430859,-0.32246 -0.992188,-0.32246 -1.686719,-0.89297 -0.694531,-0.5457 -1.116211,-1.26504 -0.396875,-0.71934 -0.620117,-1.48828 -0.223242,-0.76894 -0.297656,-1.56269 -0.04961,-0.79375 -0.04961,-1.46348 v -11.33574 q 0,-0.71934 -0.124023,-1.0418 -0.09922,-0.322461 -0.09922,-0.595313 0,-0.37207 0.396875,-0.595312 0.396875,-0.248047 0.942578,-0.248047 1.265039,0 1.984375,0.669727 0.744141,0.644921 0.744141,1.562695 v 11.6334 q 0,0.66973 0.07441,1.33945 0.09922,0.64492 0.347265,1.14102 0.272852,0.49609 0.768946,0.81855 0.496093,0.29766 1.314648,0.29766 0.719336,0 1.190625,-0.27285 0.496094,-0.29766 0.79375,-0.79375 0.297656,-0.4961 0.42168,-1.14102 0.124023,-0.66973 0.124023,-1.38906 z m 34.999412,8.53281 q 0.0496,-0.29766 0.32247,-0.49609 0.29765,-0.19844 0.66972,-0.27286 0.37207,-0.0744 0.76895,0 0.42168,0.0744 0.71933,0.34727 0.32246,0.24805 0.44649,0.71934 0.14883,0.44648 -0.0248,1.16582 -0.22324,1.04179 -0.74414,1.95957 -0.49609,0.89297 -1.26504,1.5875 -0.76894,0.69453 -1.81074,1.0914 -1.0418,0.39688 -2.33164,0.39688 -0.69453,0 -1.31465,-0.0744 -0.59531,-0.0744 -1.16582,-0.27285 -0.94258,1.63711 -2.43086,2.6293 -1.48828,1.01699 -3.671096,1.01699 -1.934765,0 -3.323828,-0.76895 -1.389062,-0.74414 -2.306836,-2.03398 -0.917773,-1.31465 -1.364257,-3.02617 -0.42168,-1.71152 -0.42168,-3.62148 0,-2.80293 0.644922,-5.01055 0.669726,-2.23242 1.53789,-3.77031 0.868165,-1.5627 1.711524,-2.381255 0.868164,-0.818554 1.289844,-0.818554 0.496093,0 0.892968,0.446484 0.42168,0.42168 0.595313,1.016992 0.198437,0.570508 0.09922,1.165823 -0.07441,0.59531 -0.570508,0.91777 -0.297656,0.47129 -0.719336,1.09141 -0.396875,0.62011 -0.768945,1.56269 -0.347266,0.91778 -0.595313,2.25723 -0.248047,1.33945 -0.248047,3.22461 0,1.6123 0.272852,2.80293 0.297656,1.19062 0.79375,2.00918 0.520898,0.79375 1.16582,1.19062 0.669727,0.39688 1.413867,0.39688 1.091406,0 1.785936,-0.5209 0.71934,-0.5457 1.21543,-1.41387 -1.78594,-1.53789 -2.728514,-3.89433 -0.917774,-2.38125 -0.917774,-5.13457 0,-1.19063 0.248047,-2.25723 0.272852,-1.09141 0.768946,-1.90996 0.520898,-0.818556 1.289845,-1.289845 0.76894,-0.496094 1.78594,-0.496094 0.89297,0 1.68672,0.644922 0.79375,0.644927 1.38906,1.785937 0.59531,1.14102 0.91777,2.70371 0.34727,1.5627 0.34727,3.39824 0,1.41387 -0.17363,2.80293 -0.17364,1.38907 -0.54571,2.67891 0.27285,0.0992 0.4961,0.12402 0.24804,0 0.5209,0 0.81855,0 1.43867,-0.29765 0.64492,-0.29766 1.0914,-0.79375 0.44649,-0.4961 0.71934,-1.16582 0.27285,-0.66973 0.39687,-1.41387 z m -9.69863,-4.71289 q 0,1.71152 0.5209,3.24941 0.5457,1.53789 1.41387,2.67891 0.14883,-1.21543 0.14883,-2.33164 0,-1.28985 -0.0496,-2.38125 -0.0248,-1.11621 -0.17364,-1.90996 -0.12402,-0.79375 -0.37207,-1.24024 -0.22324,-0.47129 -0.62012,-0.47129 -0.86816,0 -0.86816,2.40606 z m 5.13457,-10.79004 q 0.57051,0.04961 1.26504,0.07441 0.59531,0.04961 1.43867,0.07441 0.84336,0 1.88516,0.0248 v -8.607226 q 0,-0.545703 -0.0992,-0.868164 -0.0744,-0.322461 -0.17363,-0.496094 -0.0744,-0.198437 -0.17364,-0.297656 -0.0744,-0.124023 -0.0744,-0.248047 0,-0.148828 0.14883,-0.248047 0.14883,-0.09922 0.39687,-0.173633 0.24805,-0.07441 0.5209,-0.09922 0.29766,-0.04961 0.57051,-0.04961 1.26504,0 1.98438,0.669727 0.74414,0.644922 0.74414,1.562695 v 8.904883 q 2.33164,0 4.91132,-0.04961 2.6045,-0.04961 5.20899,-0.173632 0.34726,-0.372071 0.5457,-0.272852 0.22324,0.09922 0.27285,0.471289 0.0744,0.37207 0.0248,0.917774 -0.0496,0.545703 -0.19844,1.066601 -0.14883,0.496094 -0.42168,0.868164 -0.24805,0.37207 -0.57051,0.37207 -3.05097,0.07442 -5.40742,0.09922 -2.33164,0 -4.36562,0 v 16.098238 q 0,1.24024 0.47128,1.78594 0.47129,0.54571 1.26504,0.54571 0.76895,0 1.31465,-0.54571 0.57051,-0.5457 0.96739,-1.36426 0.42167,-0.81855 0.66972,-1.76113 0.27285,-0.96738 0.44649,-1.81074 0.14882,-0.79375 0.49609,-1.14102 0.34727,-0.37207 0.71934,-0.37207 0.29765,0 0.62011,0.19844 0.32246,0.17363 0.57051,0.47129 0.27285,0.29766 0.42168,0.66973 0.17363,0.37207 0.17363,0.74414 0,0.0496 0,0.12402 0,0.0744 -0.0496,0.22324 -0.32246,1.26504 -0.89297,2.6541 -0.5457,1.38907 -1.43867,2.55489 -0.86816,1.16582 -2.08359,1.93476 -1.21543,0.76895 -2.85254,0.76895 -1.01699,0 -1.88516,-0.32246 -0.84336,-0.29766 -1.46347,-0.99219 -0.62012,-0.66973 -0.96739,-1.73633 -0.34726,-1.0666 -0.34726,-2.57969 V 97.399695 q -0.84336,0 -1.51309,0 -0.64492,-0.0248 -1.0914,-0.04961 -0.5209,-0.02481 -0.91778,-0.04961 -0.59531,0 -1.04179,-0.520898 -0.47129,-0.545703 -0.64493,-1.190625 -0.19843,-0.644922 -0.0496,-1.16582 0.12402,-0.545703 0.66972,-0.545703 z m 25.47441,9.10332 q 0,1.41387 -0.49609,2.90215 -0.47129,1.48828 -1.43867,2.82773 -0.94258,1.31465 -2.35645,2.38125 -1.38906,1.0418 -3.22461,1.5875 0.24805,0.64492 0.64493,1.24024 0.42168,0.57051 0.99218,0.99218 0.57051,0.42168 1.31465,0.66973 0.76895,0.24805 1.76113,0.24805 1.48829,0 2.55489,-0.5457 1.0666,-0.57051 1.78593,-1.48829 0.74415,-0.91777 1.19063,-2.05879 0.44648,-1.14101 0.66973,-2.30683 0.17363,-0.84336 0.69453,-1.11621 0.5457,-0.29766 1.0914,-0.14883 0.57051,0.14883 0.96739,0.64492 0.42168,0.47129 0.34726,1.14102 -0.0992,0.76894 -0.34726,1.76113 -0.22325,0.99219 -0.69453,2.00918 -0.47129,1.01699 -1.21543,2.00918 -0.71934,0.96738 -1.78594,1.73633 -1.0666,0.76894 -2.50528,1.24023 -1.43867,0.47129 -3.29902,0.47129 -1.73633,0 -3.37344,-0.69453 -1.6123,-0.66973 -2.87734,-1.93477 -1.24023,-1.28984 -2.00918,-3.15019 -0.74414,-1.88516 -0.74414,-4.26641 0,-2.40605 0.66973,-4.46484 0.66972,-2.08359 1.76113,-3.59668 1.09141,-1.513087 2.48047,-2.356446 1.38906,-0.868164 2.85254,-0.868164 1.0666,0 1.90996,0.37207 0.86816,0.37207 1.46347,1.066601 0.59532,0.669727 0.89297,1.612309 0.32246,0.94257 0.32246,2.08359 z m -8.18554,6.00273 q 0,0.22325 0.0248,0.44649 0.0248,0.22324 0.0248,0.47129 0.94258,-0.44649 1.71152,-1.14102 0.76895,-0.69453 1.31465,-1.5875 0.5457,-0.89297 0.84336,-1.93476 0.29765,-1.0666 0.29765,-2.20762 0,-0.84336 -0.29765,-1.31465 -0.27285,-0.47129 -0.76895,-0.47129 -0.62011,0 -1.11621,0.42168 -0.47129,0.42168 -0.84336,1.11621 -0.34726,0.66973 -0.59531,1.53789 -0.22324,0.84336 -0.37207,1.71153 -0.14883,0.86816 -0.19844,1.66191 -0.0496,0.76895 -0.0248,1.28984 z"
       id="text1"
       aria-label="Rwote" />
  </g>
</svg>
