<?xml version="1.0" encoding="UTF-8" standalone="no"?>
<!-- Created with Inkscape (http://www.inkscape.org/) -->

<svg
   width="512"
   height="512"
   viewBox="0 0 512 512"
   version="1.1"
   id="svg1"
   xmlns="http://www.w3.org/2000/svg"
   xmlns:svg="http://www.w3.org/2000/svg">
  <defs
     id="defs1" />
  <g
     id="layer1"
     style="display:inline">
    <rect
       style="fill:#ececec"
       id="rect2"
       width="502.75024"
       height="501.66208"
       x="5.44102"
       y="6.5292239"
       ry="88.144524" />
  </g>
  <g
     id="layer2">
    <path
       d="m 211.49826,144.95224 q 0,-6.23047 -1.07422,-9.02344 -0.85937,-2.79297 -0.85937,-5.15625 0,-3.22265 3.4375,-5.37109 3.4375,-2.14844 8.16406,-2.14844 10.95703,0 17.61719,5.80078 6.875,5.58594 6.875,13.75 v 143.73047 q 8.3789,-1.50391 18.26172,-5.15625 10.09765,-3.65234 19.98046,-9.66797 10.09766,-6.23047 19.33594,-15.03906 9.45313,-8.80859 16.54297,-20.625 7.30469,-11.81641 11.60156,-26.64063 4.51172,-15.03906 4.51172,-33.73046 0,-12.46094 -4.29687,-25.78125 -4.08203,-13.32032 -12.89063,-24.27735 -8.80859,-10.95703 -22.77344,-18.04687 -13.75,-7.08985 -33.08593,-7.08985 -25.35157,0 -43.82813,8.37891 -18.47656,8.37891 -30.50781,22.55859 -12.03125,13.96485 -17.83203,32.01172 -5.80078,18.04688 -5.80078,37.38281 0,14.60938 2.36328,24.70704 2.57812,9.88281 5.58594,16.32812 3.00781,6.23047 5.58593,9.23828 2.57813,3.00781 3.00782,3.4375 3.65234,-1.07422 5.15625,0.85938 1.5039,1.93359 1.5039,5.15625 0,3.00781 -2.14844,9.02343 -1.93359,6.01563 -5.37109,11.38672 -3.4375,5.15625 -7.94922,7.94922 -4.51172,2.57813 -9.23828,-1.07422 -2.57812,-2.36328 -7.94922,-8.59375 -5.37109,-6.23047 -10.74219,-16.54297 -5.15625,-10.52734 -9.23828,-25.13671 -4.08203,-14.82422 -4.08203,-34.16016 0,-30.50781 9.45313,-55.42969 9.45312,-25.13672 26.64062,-42.96875 17.40235,-18.046873 41.46485,-27.714841 24.0625,-9.882813 53.49609,-9.882813 24.0625,0 43.82812,7.949219 19.76563,7.949219 33.94532,22.34375 14.17968,14.179685 21.91406,33.945315 7.73437,19.76562 7.73437,43.18359 0,22.55859 -6.66015,42.32422 -6.44531,19.76562 -17.83203,36.09375 -11.38672,16.32812 -26.64063,29.00391 -15.03906,12.67578 -32.4414,20.625 10.95703,6.23046 18.04687,15.2539 7.30469,8.8086 12.24609,19.1211 5.15625,10.09765 8.8086,21.26953 3.86719,11.17187 7.73437,21.91406 3.86719,10.95703 8.8086,21.05469 4.9414,10.09765 12.46093,18.04687 0.85938,1.07422 2.14844,1.50391 1.50391,0.64453 2.79297,1.07422 1.50391,0.64453 2.36328,1.28906 1.07422,0.85937 1.07422,2.14844 0,3.22265 -3.65234,7.08984 -3.65235,4.08203 -8.59375,7.51953 -4.94141,3.65235 -10.09766,6.01563 -4.94141,2.36328 -7.51953,2.36328 -3.22266,0 -5.80078,-2.57813 -10.74219,-12.24609 -16.75781,-25.5664 -6.01563,-13.10547 -10.09766,-26.21094 -4.08203,-12.89063 -7.51953,-25.13672 -3.4375,-12.24609 -9.02344,-22.55859 -5.37109,-10.3125 -14.17969,-18.04688 -8.80859,-7.73437 -23.84765,-11.8164 v 61.01562 q 0,5.58594 -3.65235,7.73438 -3.65234,2.36328 -8.59375,2.36328 -3.86718,0 -7.73437,-1.07422 -3.86719,-1.07422 -7.08985,-2.79297 -3.00781,-1.71875 -5.15625,-4.08203 -1.93359,-2.14844 -1.93359,-4.72656 z"
       id="text2"
       style="font-size:440px;font-family:'Grand Hotel';-inkscape-font-specification:'Grand Hotel'"
       aria-label="R" />
  </g>
</svg>
